<?xml version="1.0" standalone="no"?>
<!DOCTYPE svg PUBLIC "-//W3C//DTD SVG 20010904//EN"
 "http://www.w3.org/TR/2001/REC-SVG-20010904/DTD/svg10.dtd">
<svg version="1.0" xmlns="http://www.w3.org/2000/svg"
 width="750.000000pt" height="750.000000pt" viewBox="0 0 750.000000 750.000000"
 preserveAspectRatio="xMidYMid meet">

<g transform="translate(0.000000,750.000000) scale(0.100000,-0.100000)"
fill="#000000" stroke="none">
<path d="M1433 6280 c-48 -20 -57 -88 -18 -141 63 -88 69 -133 18 -145 -21 -6
-31 -2 -50 20 -13 15 -23 35 -23 44 0 28 -17 -1 -24 -40 l-7 -38 48 -2 c102
-4 128 9 139 67 6 36 -4 62 -48 115 -31 38 -36 81 -13 100 22 19 63 -2 71 -37
7 -25 8 -25 15 -8 14 36 10 64 -8 63 -10 0 -31 2 -48 6 -16 3 -40 1 -52 -4z"/>
<path d="M2115 6278 c-84 -30 -133 -107 -121 -193 3 -25 14 -57 23 -70 20 -27
73 -49 100 -42 10 3 30 8 44 11 22 5 28 14 38 63 7 32 18 64 23 71 8 9 0 12
-37 12 -39 0 -45 -2 -36 -14 8 -10 8 -27 -2 -67 -12 -46 -18 -54 -40 -57 -81
-10 -75 191 8 256 39 31 78 28 104 -5 l20 -28 1 31 c0 29 -3 32 -37 38 -47 7
-51 7 -88 -6z"/>
<path d="M2390 6279 c-91 -36 -153 -183 -111 -262 17 -31 61 -49 102 -40 66
13 132 117 133 207 0 42 -4 52 -32 77 -34 31 -51 34 -92 18z m58 -21 c17 -17
15 -84 -4 -149 -43 -145 -137 -162 -119 -22 16 132 77 217 123 171z"/>
<path d="M1670 6158 c-47 -67 -97 -134 -112 -150 l-26 -28 35 0 c29 0 33 3 24
14 -8 10 -6 21 12 47 19 29 29 34 62 34 38 0 40 -2 43 -33 2 -24 -2 -38 -15
-48 -16 -12 -12 -13 37 -14 35 0 50 3 41 9 -11 7 -13 37 -9 150 3 78 2 141 -1
141 -3 0 -44 -55 -91 -122z m36 -54 c-6 -16 -42 -19 -51 -4 -3 5 7 27 22 47
l28 37 3 -33 c2 -18 1 -39 -2 -47z"/>
<path d="M1887 6257 c6 -32 -45 -244 -64 -262 -13 -13 -8 -15 43 -15 49 0 55
2 41 13 -16 11 -15 20 13 137 17 68 36 130 42 137 8 10 1 13 -34 13 -42 0 -45
-2 -41 -23z"/>
<path d="M2598 6267 c7 -8 6 -31 -4 -76 -8 -35 -13 -68 -11 -74 2 -6 9 16 16
48 16 71 25 65 71 -55 39 -99 50 -123 56 -118 2 3 18 60 35 129 16 68 37 132
46 141 15 17 14 18 -17 18 -27 0 -31 -2 -20 -15 9 -11 8 -30 -6 -90 -10 -42
-22 -74 -28 -72 -6 2 -26 43 -45 90 -33 86 -33 87 -68 87 -27 0 -33 -3 -25
-13z"/>
<path d="M2571 6084 c0 -11 3 -14 6 -6 3 7 2 16 -1 19 -3 4 -6 -2 -5 -13z"/>
<path d="M2561 6044 c0 -11 3 -14 6 -6 3 7 2 16 -1 19 -3 4 -6 -2 -5 -13z"/>
<path d="M2537 6000 c-16 -19 -16 -20 18 -20 34 0 34 1 18 20 -10 11 -18 20
-18 20 0 0 -8 -9 -18 -20z"/>
<path d="M1905 5816 c-61 -28 -115 -110 -115 -176 0 -38 21 -90 44 -109 27
-22 94 -17 119 9 l22 22 -22 -11 c-61 -31 -103 -1 -103 76 0 119 89 222 144
167 9 -8 16 -20 16 -25 0 -23 18 -6 22 21 3 22 1 30 -11 30 -9 0 -32 2 -51 5
-19 3 -48 -1 -65 -9z"/>
<path d="M2735 5814 c-45 -24 -65 -45 -87 -87 -43 -86 -30 -185 28 -208 84
-31 193 82 194 201 0 82 -68 130 -135 94z m75 -39 c4 -17 1 -58 -6 -91 -23
-112 -71 -176 -109 -144 -33 28 -4 196 41 246 33 34 66 29 74 -11z"/>
<path d="M3245 5810 c-75 -37 -127 -150 -105 -229 22 -82 114 -90 180 -15 65
75 82 178 38 228 -32 35 -65 40 -113 16z m76 -24 c15 -32 -5 -149 -34 -200
-28 -50 -51 -65 -74 -50 -23 15 -22 119 2 184 29 82 84 116 106 66z"/>
<path d="M3530 5815 c-70 -32 -110 -94 -110 -170 0 -87 45 -131 129 -128 51 2
66 15 76 71 3 20 13 47 21 60 14 22 14 22 -29 22 -42 0 -43 -1 -39 -28 2 -16
-1 -47 -8 -70 -9 -34 -15 -42 -34 -42 -40 0 -60 34 -59 99 2 92 57 181 112
181 34 0 48 -10 59 -40 9 -25 9 -25 17 8 4 18 5 35 3 37 -13 14 -107 13 -138
0z"/>
<path d="M1330 5806 c0 -8 -3 -22 -7 -32 -6 -16 -3 -15 21 4 32 24 56 29 56
10 -1 -42 -61 -244 -76 -255 -15 -11 -9 -13 42 -13 39 0 54 3 45 9 -13 8 -11
28 14 140 18 82 33 131 41 131 25 0 44 -12 44 -29 0 -14 2 -14 10 -1 5 8 10
23 10 33 0 15 -11 17 -100 17 -80 0 -100 -3 -100 -14z"/>
<path d="M1578 5813 c6 -2 12 -13 12 -23 0 -32 -51 -224 -66 -247 l-14 -23
100 0 c55 0 100 1 100 3 0 1 4 16 9 34 l9 31 -35 -24 c-21 -14 -50 -24 -71
-24 -34 0 -34 1 -28 33 4 17 10 47 13 65 5 27 10 32 34 32 16 0 32 -7 38 -17
8 -15 10 -13 16 12 4 17 9 36 11 44 4 11 0 11 -14 -2 -25 -23 -77 -23 -68 -1
3 9 9 33 12 54 4 21 12 41 19 44 18 7 85 -13 85 -24 0 -6 5 -10 10 -10 6 0 10
11 10 25 l0 25 -97 -1 c-54 0 -92 -3 -85 -6z"/>
<path d="M2097 5801 c7 -27 -46 -249 -64 -266 -13 -13 -8 -15 38 -15 42 0 49
2 40 13 -8 10 -8 29 0 70 7 32 15 57 18 58 94 9 98 6 81 -58 -7 -26 -21 -56
-32 -65 -20 -17 -18 -18 37 -18 49 0 56 2 46 14 -17 20 40 255 65 273 15 11
11 13 -33 13 -46 0 -51 -2 -46 -20 3 -10 0 -42 -7 -70 l-12 -50 -42 0 c-24 0
-45 2 -48 5 -7 7 19 105 33 121 9 12 4 14 -34 14 -40 0 -45 -2 -40 -19z"/>
<path d="M2390 5811 c12 -8 12 -19 2 -71 -7 -34 -11 -64 -9 -67 3 -2 8 14 12
36 4 23 11 43 15 46 10 6 37 -50 77 -157 14 -38 29 -68 33 -68 4 0 12 26 19
58 21 96 23 110 7 72 l-13 -35 -11 25 c-6 14 -24 57 -39 95 -28 69 -29 70 -68
73 -29 2 -36 0 -25 -7z"/>
<path d="M2568 5803 c6 -10 6 -29 1 -47 -5 -17 -9 -38 -8 -46 0 -8 7 7 14 33
7 26 19 54 25 62 10 13 8 15 -14 15 -22 0 -25 -3 -18 -17z"/>
<path d="M2956 5803 c8 -32 -52 -256 -73 -270 -15 -12 -4 -13 81 -11 l100 3
13 32 13 32 -37 -24 c-41 -28 -93 -34 -93 -10 0 35 54 231 68 248 14 16 12 17
-31 17 -38 0 -44 -3 -41 -17z"/>
<path d="M3734 5798 c44 -69 39 -244 -8 -266 -17 -9 -8 -11 43 -11 55 -1 62 1
48 12 -29 20 -5 101 58 202 l54 85 -31 0 c-26 0 -29 -2 -18 -15 10 -12 7 -24
-17 -66 -16 -28 -33 -52 -38 -53 -16 -2 -29 95 -16 116 10 17 7 18 -39 18 -50
0 -50 0 -36 -22z"/>
<path d="M2371 5644 c0 -11 3 -14 6 -6 3 7 2 16 -1 19 -3 4 -6 -2 -5 -13z"/>
<path d="M2362 5600 c0 -14 2 -19 5 -12 2 6 2 18 0 25 -3 6 -5 1 -5 -13z"/>
<path d="M2337 5544 l-18 -24 32 0 c24 0 29 3 22 13 -6 6 -12 17 -14 24 -2 6
-12 1 -22 -13z"/>
<path d="M2755 5365 c-17 -16 -25 -35 -25 -57 0 -30 8 -46 62 -127 24 -34 23
-64 -3 -87 -19 -17 -23 -17 -47 -3 -15 8 -32 30 -39 49 -11 34 -11 34 -17 10
-18 -73 -17 -73 56 -78 61 -3 69 -1 93 22 38 38 34 81 -15 149 -42 58 -50 96
-25 117 23 19 49 8 67 -29 l17 -34 6 29 c4 16 8 34 10 40 2 7 -15 14 -42 18
-68 9 -72 8 -98 -19z"/>
<path d="M1267 5369 c11 -11 7 -37 -22 -162 -19 -77 -19 -77 2 -105 35 -47
122 -43 148 8 19 37 19 54 -1 18 -16 -31 -59 -46 -83 -31 -9 6 -17 26 -19 45
-4 49 36 210 56 226 13 10 7 12 -38 12 -38 0 -51 -3 -43 -11z"/>
<path d="M1438 5373 c6 -2 12 -17 13 -31 0 -16 3 -21 6 -12 3 8 12 23 21 33
14 16 13 17 -19 16 -19 0 -28 -3 -21 -6z"/>
<path d="M1550 5365 c10 -12 10 -25 1 -61 -7 -26 -10 -49 -7 -51 3 -3 8 11 11
31 4 20 11 36 15 36 4 0 26 -51 50 -112 24 -62 47 -117 51 -122 4 -5 12 9 17
30 29 121 34 146 29 150 -2 3 -8 -11 -11 -30 -4 -19 -11 -38 -16 -41 -4 -3
-25 38 -45 90 l-37 95 -35 0 c-30 0 -34 -2 -23 -15z"/>
<path d="M1716 5372 c7 -4 14 -17 15 -29 4 -22 5 -21 21 7 l17 30 -32 0 c-18
0 -27 -4 -21 -8z"/>
<path d="M1829 5371 c11 -7 9 -27 -13 -119 -14 -61 -26 -117 -26 -126 0 -8
-10 -24 -22 -36 l-22 -20 59 0 c46 0 56 3 47 12 -7 7 -12 21 -12 33 1 42 58
247 71 256 9 6 -6 9 -41 9 -35 0 -50 -3 -41 -9z"/>
<path d="M1966 5369 c4 -6 6 -74 5 -150 -1 -77 0 -139 3 -139 4 0 57 72 170
233 46 66 47 67 22 67 -19 0 -24 -4 -19 -16 6 -16 -101 -184 -118 -184 -11 0
-11 86 0 153 l8 47 -39 0 c-27 0 -37 -4 -32 -11z"/>
<path d="M2238 5367 c14 -17 -45 -267 -67 -284 -13 -10 4 -12 87 -13 101 0
103 0 112 26 16 42 12 45 -26 19 -35 -24 -88 -33 -97 -17 -2 4 2 35 10 70 12
53 18 62 37 62 12 0 27 -5 34 -12 15 -15 19 -11 27 27 6 25 5 28 -6 18 -7 -7
-26 -13 -41 -13 -28 0 -29 1 -22 38 12 66 22 82 49 82 14 0 37 -11 50 -24 23
-23 23 -23 29 -2 3 11 6 24 6 29 0 4 -43 7 -96 7 -76 0 -94 -3 -86 -13z"/>
<path d="M2498 5355 c6 -32 -46 -245 -66 -267 -14 -17 -12 -18 38 -18 44 0 51
2 41 14 -15 18 5 136 23 136 7 0 18 -28 25 -62 15 -76 24 -88 64 -88 28 0 29
1 14 18 -8 9 -21 46 -29 81 -11 54 -11 65 1 69 28 9 51 43 51 75 0 51 -24 67
-102 67 -64 0 -65 0 -60 -25z m106 -12 c4 -8 1 -33 -4 -54 -8 -29 -17 -40 -36
-45 -14 -4 -27 -5 -29 -2 -5 4 19 101 29 117 9 13 33 4 40 -16z"/>
<path d="M2967 5368 c13 -17 -42 -256 -64 -280 -15 -17 -13 -18 37 -18 42 0
50 3 41 13 -14 18 44 266 67 285 13 10 7 12 -37 12 -41 0 -51 -3 -44 -12z"/>
<path d="M3100 5366 c0 -8 -3 -23 -7 -33 -5 -15 -2 -15 19 5 27 24 58 29 58
10 0 -32 -60 -253 -69 -256 -29 -10 -5 -22 40 -22 45 0 50 2 39 15 -10 12 -7
39 16 145 26 118 31 130 51 130 13 0 24 -8 28 -21 6 -17 9 -19 16 -8 5 8 9 22
9 32 0 15 -11 17 -100 17 -80 0 -100 -3 -100 -14z"/>
<path d="M3338 5372 c7 -5 19 -42 28 -83 13 -61 14 -84 4 -129 -7 -30 -19 -63
-28 -72 -14 -17 -12 -18 38 -18 45 0 51 2 40 15 -21 25 5 107 64 205 l54 90
-30 0 c-25 0 -28 -3 -19 -14 6 -7 8 -22 4 -32 -13 -36 -54 -95 -62 -90 -15 10
-23 107 -10 122 10 12 3 14 -42 14 -31 0 -49 -4 -41 -8z"/>
<path d="M1431 5254 c-7 -30 -11 -57 -8 -60 2 -2 9 21 16 52 7 30 11 57 8 60
-2 2 -9 -21 -16 -52z"/>
<path d="M1721 5294 c0 -11 3 -14 6 -6 3 7 2 16 -1 19 -3 4 -6 -2 -5 -13z"/>
<path d="M1526 5204 c-4 -20 -5 -38 -3 -40 3 -3 8 11 11 32 4 20 5 38 3 40 -3
3 -8 -11 -11 -32z"/>
<path d="M1506 5120 c-5 -14 -16 -30 -25 -37 -13 -10 -10 -12 23 -13 30 0 36
3 28 13 -5 6 -12 23 -14 37 l-4 25 -8 -25z"/>
<path d="M2235 4330 c-14 -5 -25 -25 -34 -59 -25 -97 -80 -112 -208 -57 -35
14 -89 37 -120 50 -111 47 -208 66 -334 66 -134 0 -197 -10 -291 -46 -178 -67
-320 -209 -393 -389 -26 -62 -29 -85 -33 -205 -3 -114 0 -145 16 -197 33 -104
88 -191 181 -284 109 -110 207 -173 500 -324 280 -144 353 -188 415 -255 70
-75 101 -148 101 -240 0 -62 -5 -85 -28 -132 -72 -146 -257 -228 -449 -199
-327 50 -561 287 -658 666 -17 69 -18 70 -54 73 l-36 3 0 -434 c0 -426 0 -435
20 -440 28 -7 60 3 60 19 0 26 84 102 125 113 48 13 73 7 235 -54 141 -53 250
-75 383 -75 290 -2 519 103 674 310 144 192 173 454 74 667 -87 186 -244 308
-671 525 -274 139 -339 178 -412 246 -79 74 -102 121 -103 211 0 59 5 86 22
121 120 242 501 249 764 12 102 -92 195 -256 223 -396 l13 -61 40 -3 40 -3 -4
253 c-6 339 -16 521 -28 524 -5 1 -19 -1 -30 -6z"/>
<path d="M5118 4333 c-22 -4 -26 -9 -26 -33 1 -28 3 -30 59 -36 72 -8 115 -34
137 -82 15 -33 18 -116 23 -842 6 -862 4 -832 58 -1010 38 -125 120 -234 235
-313 86 -59 158 -78 306 -84 217 -9 350 37 471 164 137 143 176 233 205 473
11 96 16 279 19 802 2 373 7 694 11 715 19 107 87 173 176 173 l48 0 0 40 0
40 -287 0 c-159 0 -293 -4 -298 -8 -6 -4 -11 -19 -12 -34 -1 -27 16 -38 65
-38 13 0 45 -9 71 -21 40 -17 52 -28 70 -67 12 -26 26 -74 31 -107 13 -81 13
-1228 0 -1389 -13 -160 -32 -241 -77 -335 -71 -148 -182 -223 -333 -225 -125
-1 -222 59 -283 176 -50 95 -52 129 -52 1023 0 758 1 833 17 867 24 54 69 78
144 78 66 0 79 8 79 50 l0 25 -415 1 c-228 0 -427 -1 -442 -3z"/>
<path d="M2936 4322 c-3 -5 -4 -150 -3 -323 l2 -314 30 0 c29 0 29 1 41 75 31
194 121 347 234 398 46 21 75 26 181 30 l127 5 4 -49 c3 -27 4 -481 4 -1009
-1 -1055 0 -1028 -61 -1090 -35 -34 -96 -55 -163 -55 -46 0 -51 -3 -44 -35 l4
-25 494 0 494 0 0 29 c0 28 -1 28 -71 35 -39 3 -83 13 -99 21 -35 18 -78 68
-88 103 -4 15 -7 486 -7 1047 l0 1020 135 0 c157 -1 185 -10 263 -87 61 -61
109 -161 144 -303 26 -103 30 -110 53 -110 l25 0 3 323 2 322 -849 0 c-468 0
-852 -4 -855 -8z"/>
</g>
</svg>
