<?xml version="1.0" standalone="no"?>
<!DOCTYPE svg PUBLIC "-//W3C//DTD SVG 20010904//EN"
 "http://www.w3.org/TR/2001/REC-SVG-20010904/DTD/svg10.dtd">
<svg version="1.0" xmlns="http://www.w3.org/2000/svg"
 width="564.000000pt" height="564.000000pt" viewBox="0 0 564.000000 564.000000"
 preserveAspectRatio="xMidYMid meet">

<g transform="translate(0.000000,564.000000) scale(0.100000,-0.100000)"
fill="#000000" stroke="none">
<path d="M2715 5633 c-1052 -52 -1952 -634 -2415 -1561 -333 -667 -386 -1430
-150 -2142 130 -392 399 -839 589 -979 18 -13 41 -43 51 -65 23 -56 46 -74 71
-58 25 16 71 15 92 -1 10 -6 20 -30 23 -52 5 -36 4 -38 -9 -23 -8 10 -34 25
-58 33 l-44 16 50 -51 c53 -54 65 -60 66 -32 0 9 6 2 13 -17 14 -39 109 -118
271 -226 114 -76 270 -165 288 -165 6 0 18 -6 26 -14 30 -26 328 -146 363
-146 6 0 3 9 -7 20 -12 13 -26 18 -39 15 -12 -3 -7 2 10 11 22 11 43 15 67 10
41 -8 90 -53 84 -77 -5 -20 42 -35 236 -74 149 -29 159 -30 212 -10 22 8 72
14 111 15 59 0 81 -5 128 -29 57 -28 60 -29 181 -23 l123 5 11 43 c14 57 44
61 61 9 6 -19 15 -36 18 -39 4 -2 43 2 87 9 44 7 68 13 53 14 -23 1 -28 6 -28
26 0 25 1 25 93 27 237 4 238 4 364 47 564 189 1052 549 1399 1031 485 672
644 1526 438 2345 -133 529 -454 1051 -869 1411 -416 361 -896 583 -1443 668
-85 14 -435 40 -452 34 -3 -1 -32 -3 -65 -5z m650 -526 c18 -40 36 -82 39 -94
4 -11 13 -27 21 -33 19 -16 19 -5 -1 25 -13 21 -13 23 0 21 8 -1 23 -10 34
-19 10 -9 22 -14 26 -10 4 5 6 4 4 -2 -1 -5 2 -12 7 -14 6 -2 28 -17 50 -35
39 -31 40 -21 2 21 -11 13 -17 26 -14 30 4 3 7 1 7 -5 0 -6 9 -16 19 -22 18
-9 19 -7 15 33 -3 23 -5 53 -4 67 0 15 -3 20 -8 13 -5 -8 -13 -1 -25 19 -15
26 -15 29 -2 18 15 -12 15 -10 9 16 -12 49 6 20 30 -50 15 -43 33 -74 52 -89
l29 -22 -19 30 c-13 20 -14 26 -4 18 8 -7 18 -10 21 -6 4 3 7 -4 7 -16 0 -28
33 -91 59 -113 21 -18 21 -18 23 60 1 76 1 76 8 22 l6 -55 6 45 c3 25 4 6 2
-42 -1 -48 2 -90 7 -93 5 -4 10 5 10 19 1 14 3 31 4 36 1 6 4 25 5 43 2 22 4
26 7 12 3 -11 10 -27 17 -35 7 -8 18 -28 25 -45 l13 -29 17 23 18 23 0 -31 c0
-18 -4 -27 -8 -20 -4 6 -8 -9 -10 -34 -2 -25 -2 -44 2 -42 9 6 8 -69 -2 -85
-7 -11 -8 -8 -4 10 5 19 4 22 -4 10 -6 -8 -11 -31 -11 -51 0 -23 -8 -46 -21
-60 -11 -13 -17 -17 -13 -10 4 8 8 25 9 37 0 18 -2 20 -12 12 -16 -13 -17 4
-2 19 6 6 9 19 6 29 -4 16 -5 16 -6 -2 0 -12 -7 -24 -14 -27 -10 -4 -12 4 -11
27 2 17 1 23 -2 14 -3 -10 -10 -18 -15 -18 -6 0 -7 -6 -3 -12 4 -7 3 -10 -1
-5 -5 4 -16 0 -26 -9 -16 -15 -17 -13 -9 20 9 40 -3 57 -19 29 -6 -10 -11 -14
-11 -9 0 6 -6 2 -13 -9 -11 -14 -16 -15 -22 -5 -5 8 -4 11 3 6 6 -4 10 1 10
11 0 10 3 26 7 36 4 10 3 17 -4 17 -6 0 -11 9 -11 19 0 11 -6 23 -12 28 -19
11 -50 14 -43 4 3 -5 1 -12 -3 -15 -5 -3 -15 6 -22 19 -14 25 -30 33 -30 15 0
-15 -27 -12 -33 4 -3 7 -14 15 -24 18 -16 4 -18 -1 -16 -41 l2 -46 -10 45
c-14 61 -25 69 -22 17 l2 -42 -12 41 c-12 43 -36 78 -45 69 -3 -3 -11 0 -19 7
-11 9 -12 7 -7 -7 6 -14 4 -16 -7 -10 -12 7 -12 6 0 -9 14 -17 16 -17 27 -1
12 16 13 16 11 -4 -2 -25 -16 -27 -43 -6 -31 23 -34 18 -19 -32 8 -27 15 -52
14 -58 0 -12 -40 83 -43 104 -2 8 -15 15 -29 17 -16 2 -25 -1 -21 -7 3 -6 -17
1 -46 16 -29 14 -54 24 -57 22 -2 -3 -20 1 -39 9 -19 8 -34 12 -34 9 0 -8 64
-38 85 -39 11 -1 19 -8 17 -15 -2 -9 3 -11 15 -7 13 5 15 4 7 -4 -9 -9 -22 -6
-54 10 -36 19 -96 37 -230 71 -19 5 -44 9 -54 9 -20 0 -20 0 0 -15 10 -8 27
-15 37 -15 10 0 16 -4 12 -9 -3 -5 0 -13 6 -17 8 -4 9 -3 5 4 -4 7 -1 12 9 12
9 0 14 -4 11 -9 -3 -5 7 -11 24 -13 16 -2 27 -1 24 4 -3 4 0 8 5 8 6 0 11 -4
11 -9 0 -5 19 -16 43 -24 23 -8 51 -18 62 -23 l20 -7 -20 24 -20 24 23 -19
c12 -11 20 -21 17 -24 -3 -3 1 -12 8 -20 9 -12 7 -12 -14 1 -31 20 -129 51
-137 43 -3 -3 1 -6 9 -6 24 0 184 -88 175 -97 -3 -3 -25 6 -50 20 -26 14 -46
24 -46 23 0 -7 54 -102 69 -121 9 -11 -1 -5 -21 14 -21 19 -35 38 -32 43 8 13
-24 58 -41 58 -8 0 -14 5 -13 11 2 7 -13 18 -32 26 -32 14 -30 11 25 -41 58
-53 64 -69 18 -43 -12 7 -22 15 -22 20 -1 18 -68 65 -94 65 -32 -1 -30 -7 3
-13 33 -6 91 -48 81 -58 -5 -5 -27 1 -50 12 -55 28 -52 19 3 -14 31 -18 43
-31 39 -41 -4 -12 -12 -10 -36 13 -16 15 -27 22 -23 16 9 -17 0 -16 -27 1 -28
19 -97 48 -97 41 0 -2 16 -11 35 -19 19 -8 35 -21 34 -28 0 -10 -2 -10 -6 0
-2 6 -12 12 -20 12 -11 0 -8 -6 10 -20 14 -11 30 -20 35 -20 6 0 13 -4 16 -8
7 -11 -52 -6 -87 7 -21 8 -26 8 -21 -1 5 -8 2 -9 -12 -3 -28 11 -53 12 -53 0
-1 -5 7 -10 17 -11 46 -3 48 -4 32 -14 -12 -8 -12 -10 -1 -10 8 0 12 -2 10 -5
-3 -2 -24 3 -48 11 -24 8 -49 13 -55 10 -6 -2 -3 -5 6 -5 9 -1 20 -5 23 -11 4
-6 -2 -7 -17 -1 -29 10 -114 24 -107 17 3 -3 23 -12 45 -20 53 -20 28 -20 -43
0 -32 9 -87 22 -123 29 -53 11 -62 11 -47 0 9 -7 41 -16 69 -19 35 -5 48 -10
38 -16 -7 -4 -18 -7 -24 -5 -6 2 -37 11 -69 20 -37 10 -55 20 -51 27 5 7 3 8
-5 4 -9 -6 -8 -13 6 -28 18 -21 18 -21 -4 -9 -19 10 -28 8 -55 -11 -18 -13
-38 -30 -45 -38 -14 -17 -17 -44 -5 -36 4 2 14 0 22 -5 13 -9 13 -10 0 -8 -28
3 -38 -1 -44 -17 -6 -15 -4 -15 11 -3 15 13 15 12 6 -6 -9 -15 -8 -22 4 -31
13 -9 13 -13 3 -19 -9 -5 -11 -4 -6 3 4 7 3 12 -2 12 -16 0 -21 -13 -12 -30 7
-13 5 -20 -6 -24 -10 -4 -14 -13 -10 -22 7 -17 -12 -59 -22 -49 -3 3 -16 -11
-29 -32 l-23 -38 0 38 c0 21 11 64 25 97 14 33 25 70 25 82 0 19 2 20 10 8 6
-9 10 -10 10 -3 0 25 -21 23 -46 -4 -24 -27 -25 -27 -12 -3 7 14 13 27 13 30
0 3 13 17 28 32 26 26 38 56 17 43 -5 -3 -10 -2 -10 4 0 5 8 15 18 21 15 10
14 11 -5 6 -60 -15 -65 -15 -30 2 20 10 34 22 30 25 -3 4 -1 7 5 7 7 0 20 8
31 19 10 10 27 24 37 31 18 10 17 11 -3 7 -13 -3 -23 -1 -23 4 0 5 9 9 21 9
23 0 79 30 79 42 0 4 29 21 65 38 36 17 65 36 65 41 0 6 13 8 33 5 31 -6 31
-6 7 6 -24 12 -24 12 15 16 22 2 47 10 56 18 9 8 26 16 38 17 11 1 21 4 21 8
0 17 172 26 277 16 22 -2 29 0 23 8 -6 7 -2 11 11 11 12 0 18 -5 15 -13 -3 -7
-1 -13 3 -13 5 0 11 6 13 12 3 9 22 5 66 -14 34 -15 62 -25 62 -23 0 2 -15 13
-32 25 -37 24 -33 23 35 -9 26 -12 53 -20 60 -17 7 2 2 8 -11 12 -17 5 -20 9
-11 15 9 5 4 11 -17 21 -16 7 -32 17 -36 22 -3 5 -19 15 -35 23 l-28 13 30 -4
30 -4 -35 30 c-19 17 -25 25 -13 19 12 -6 43 -29 68 -51 25 -22 51 -40 58 -40
6 0 2 7 -9 15 -19 15 -19 15 1 7 41 -16 125 -59 139 -71 13 -11 15 -9 11 9 -5
28 -24 50 -41 50 -8 0 -14 5 -14 10 0 7 8 6 23 -1 20 -11 21 -11 9 4 -8 9 -11
20 -8 25 3 5 -10 41 -29 81 -19 40 -30 69 -24 66 6 -4 25 -39 44 -78z m174
-39 c0 -7 -5 -5 -12 6 -7 10 -23 33 -36 50 -19 25 -17 24 13 -6 20 -21 36 -43
35 -50z m-178 -10 c17 -32 2 -19 -42 35 l-43 52 38 -35 c21 -19 42 -43 47 -52z
m-256 42 c3 -6 -1 -7 -9 -4 -18 7 -21 14 -7 14 6 0 13 -4 16 -10z m455 -85 c0
-5 -5 -3 -10 5 -5 8 -10 20 -10 25 0 6 5 3 10 -5 5 -8 10 -19 10 -25z m237
-22 c-3 -10 -5 -4 -5 12 0 17 2 24 5 18 2 -7 2 -21 0 -30z m-677 -3 c8 -5 11
-10 5 -10 -5 0 -17 5 -25 10 -8 5 -10 10 -5 10 6 0 17 -5 25 -10z m801 -37
c-12 -20 -14 -14 -5 12 4 9 9 14 11 11 3 -2 0 -13 -6 -23z m-197 -39 c3 -8 2
-12 -4 -9 -6 3 -10 10 -10 16 0 14 7 11 14 -7z m116 -5 c0 -6 -4 -7 -10 -4 -5
3 -10 11 -10 16 0 6 5 7 10 4 6 -3 10 -11 10 -16z m61 -10 c-5 -13 -10 -19
-10 -12 -1 15 10 45 15 40 3 -2 0 -15 -5 -28z m-54 -31 c-3 -8 -6 -5 -6 6 -1
11 2 17 5 13 3 -3 4 -12 1 -19z m-622 -148 c10 -11 16 -20 13 -20 -3 0 -13 9
-23 20 -10 11 -16 20 -13 20 3 0 13 -9 23 -20z m788 -15 c-3 -9 -8 -14 -10
-11 -3 3 -2 9 2 15 9 16 15 13 8 -4z m-922 -23 c49 -28 139 -101 127 -102 -5
0 -25 15 -45 34 -21 18 -62 46 -90 61 -50 25 -63 36 -45 35 4 -1 28 -13 53
-28z m885 -37 c-9 -14 -23 -36 -32 -50 -9 -14 -19 -24 -21 -21 -2 2 10 25 28
50 34 48 53 64 25 21z m-1616 -39 c0 -2 -7 -7 -16 -10 -8 -3 -12 -2 -9 4 6 10
25 14 25 6z m225 -26 c56 -16 90 -28 80 -29 -18 -2 -175 43 -175 51 0 3 15 2
33 -4 17 -5 46 -13 62 -18z m-95 -21 c16 -5 4 -6 -35 -2 -33 3 -62 7 -64 9 -8
8 74 2 99 -7z m30 -97 c-30 -4 -32 -5 -15 -13 17 -8 16 -9 -5 -4 -14 3 -35 7
-48 9 -51 7 -31 16 34 14 42 -1 55 -3 34 -6z m78 -19 c-10 -2 -26 -2 -35 0
-10 3 -2 5 17 5 19 0 27 -2 18 -5z m1365 -11 c4 9 6 9 6 1 1 -17 -19 -27 -31
-15 -6 6 -17 8 -24 5 -10 -4 -12 0 -8 11 5 14 8 14 29 0 18 -12 24 -12 28 -2z
m-573 -44 c0 -21 0 -21 15 -2 9 12 14 14 15 6 0 -7 5 -10 10 -7 6 3 10 -1 10
-11 0 -13 3 -14 14 -5 21 18 71 7 100 -22 14 -14 32 -24 39 -22 25 10 38 -10
92 -141 20 -49 43 -99 51 -111 8 -14 10 -24 4 -28 -14 -9 -13 -118 1 -132 7
-7 13 -27 15 -45 7 -78 16 -150 24 -176 l7 -27 13 27 c15 32 45 45 65 28 22
-19 18 -42 -15 -80 -36 -43 -37 -58 -3 -151 15 -44 26 -96 27 -129 1 -79 -13
-165 -30 -186 -13 -17 -14 -10 -10 72 3 50 10 102 16 116 10 20 9 31 -4 57 -9
17 -18 31 -19 31 -1 0 -3 -34 -3 -75 -2 -80 -19 -115 -44 -92 -10 10 -12 8 -6
-8 5 -14 4 -17 -4 -9 -7 7 -7 19 -2 35 11 28 -4 69 -25 69 -7 0 -13 -5 -13
-11 0 -6 -9 -8 -21 -4 -14 5 -25 2 -30 -6 -7 -11 -12 -12 -29 -1 -26 16 -33
15 -26 -3 3 -8 -2 -18 -10 -23 -13 -7 -12 -11 6 -27 11 -10 20 -23 20 -28 0
-6 -8 -3 -18 6 -10 10 -28 17 -40 17 -26 0 -30 19 -4 21 9 1 4 4 -13 8 -20 4
-30 12 -29 24 1 9 -3 17 -8 17 -12 0 -48 39 -48 51 0 4 -13 14 -29 22 -25 12
-29 13 -24 1 4 -12 0 -12 -22 -4 -14 5 -34 14 -44 19 -18 10 -207 -9 -230 -23
-15 -10 -14 7 2 23 8 9 8 12 0 7 -6 -3 -13 1 -15 11 -2 13 -9 10 -36 -17 -31
-31 -54 -39 -109 -43 -13 0 -24 -8 -24 -16 -1 -9 -5 0 -9 19 -5 23 -8 28 -9
13 -1 -15 -7 -23 -18 -22 -11 0 -13 3 -5 6 23 9 12 28 -18 29 -16 1 -30 -2
-30 -7 0 -5 -7 -9 -15 -9 -8 0 -15 7 -15 15 0 22 -101 25 -127 3 -7 -5 -17 -7
-23 -3 -5 3 -10 -1 -10 -9 0 -9 -5 -16 -11 -16 -5 0 -7 -5 -3 -12 4 -6 3 -8
-4 -5 -5 4 -8 16 -5 27 6 22 -22 30 -29 9 -3 -8 -13 -7 -35 4 -17 9 -34 13
-37 9 -4 -3 -4 1 -1 10 4 10 10 17 13 16 19 -2 23 4 12 17 -9 11 -17 12 -32 4
-16 -8 -19 -8 -13 1 9 15 -13 30 -32 23 -8 -3 -12 -14 -8 -27 3 -11 -4 -3 -14
19 l-20 40 -2 -60 c-2 -33 -3 -89 -3 -123 -1 -55 -4 -66 -25 -83 -16 -13 -33
-18 -48 -14 -13 3 -22 1 -21 -4 5 -15 -39 -68 -61 -74 -28 -7 -85 47 -112 107
-25 57 -37 221 -21 276 9 29 10 18 8 -65 -2 -92 -2 -97 10 -59 6 22 19 55 28
73 9 17 19 60 23 95 4 49 9 63 19 59 10 -4 13 -19 10 -54 -3 -45 -1 -51 24
-69 16 -11 30 -20 33 -20 12 0 16 32 7 56 -7 17 -7 23 1 19 7 -5 9 4 6 25 -6
34 -31 59 -61 60 -15 0 -73 29 -96 47 -8 7 24 23 45 22 16 -1 16 -2 -5 -9 -25
-8 -25 -8 5 -11 17 -1 36 -2 43 -2 6 1 12 -2 12 -6 0 -3 17 -15 38 -26 20 -11
48 -27 61 -37 13 -10 32 -18 43 -18 11 0 16 -5 13 -11 -4 -6 2 -13 12 -15 15
-4 19 -12 15 -30 -2 -13 0 -24 5 -24 12 0 33 59 26 76 -3 9 0 14 7 12 7 -2 15
3 17 10 3 8 -1 10 -12 5 -15 -5 -16 -3 -6 15 7 12 17 22 23 22 6 0 3 10 -8 21
-19 22 -19 22 5 14 16 -5 21 -4 17 4 -4 6 -3 11 1 11 5 0 10 16 11 37 2 20 6
41 9 46 4 6 0 8 -9 4 -23 -8 -11 30 15 48 12 8 16 15 9 15 -8 0 -10 5 -6 12 5
7 3 8 -7 3 -11 -7 -12 -6 -2 7 7 8 10 18 6 21 -3 4 -1 7 5 7 7 0 12 -6 12 -12
0 -9 3 -8 9 2 6 8 8 17 5 21 -2 4 0 10 6 14 5 3 10 11 10 17 0 6 -7 5 -17 -3
-11 -10 -14 -10 -9 -1 4 7 2 12 -6 13 -10 0 -10 2 0 6 6 2 9 10 6 15 -4 6 1
17 11 24 10 8 16 21 13 32 -4 13 0 19 10 18 8 0 17 6 19 14 4 12 3 12 -5 1 -7
-10 -11 -10 -17 -1 -4 6 1 21 12 32 13 15 14 22 6 25 -13 5 30 58 47 58 5 0
16 9 24 20 8 11 18 17 22 13 4 -5 -1 -18 -12 -30 l-19 -23 23 19 c12 11 21 25
18 31 -5 13 27 45 45 45 5 0 21 11 33 25 28 30 57 36 219 44 16 0 26 5 22 11
-3 6 3 10 15 10 12 0 19 -4 16 -9 -3 -5 13 -11 35 -15 33 -5 44 -3 55 11 10
14 15 16 25 6 11 -11 10 -13 -4 -13 -9 0 -17 -4 -17 -10 0 -5 10 -9 23 -9 12
0 32 -2 45 -6 14 -5 22 -3 22 4 0 11 -13 15 -37 12 -7 -1 -13 5 -13 14 0 12 6
15 21 10 21 -7 47 -13 62 -14 5 -1 5 -7 1 -13 -4 -8 -3 -10 2 -5 5 5 9 14 9
20 0 7 10 12 22 12 12 0 25 4 29 8 15 15 34 6 34 -15z m-1088 -37 c-10 -9 -12
-12 -5 -7 8 5 13 4 13 -2 0 -6 -4 -14 -10 -17 -5 -3 -10 -15 -10 -26 0 -10 -5
-19 -11 -19 -6 0 -8 7 -5 16 9 23 -3 56 -17 48 -7 -3 -1 3 12 14 31 25 60 19
33 -7z m1605 12 c-4 -3 -2 -12 4 -20 9 -10 8 -13 0 -13 -7 0 -9 -5 -5 -12 4
-7 3 -8 -5 -4 -6 4 -9 12 -6 17 4 5 -2 12 -11 16 -16 6 -16 7 2 14 25 10 29
10 21 2z m-55 -28 c2 3 5 -2 5 -10 0 -21 -10 -19 -26 8 -13 19 -12 21 1 10 8
-7 17 -11 20 -8z m-1293 -21 c-25 -27 -87 -59 -96 -50 -3 3 5 10 18 15 13 5
39 21 58 35 44 33 51 33 20 0z m1324 -77 c-3 -5 -12 1 -20 12 -20 29 -31 26
-25 -6 2 -16 2 -25 -2 -22 -4 4 -9 29 -12 55 l-5 49 35 -40 c19 -22 32 -44 29
-48z m-1673 53 c0 -5 -5 -10 -11 -10 -5 0 -7 5 -4 10 3 6 8 10 11 10 2 0 4 -4
4 -10z m1675 -10 c10 -11 16 -20 13 -20 -3 0 -13 9 -23 20 -10 11 -16 20 -13
20 3 0 13 -9 23 -20z m-1612 -35 c-3 -9 -8 -14 -10 -11 -3 3 -2 9 2 15 9 16
15 13 8 -4z m292 -64 c-20 -33 -39 -61 -42 -61 -3 0 1 10 9 23 8 12 25 42 37
65 12 24 25 42 27 39 3 -2 -11 -32 -31 -66z m1225 -171 c6 -11 7 -20 2 -20 -6
0 -12 9 -15 20 -3 11 -3 20 -1 20 2 0 8 -9 14 -20z m-1247 -113 c-5 -8 -8 -7
-11 1 -2 7 -9 9 -14 6 -7 -4 -8 -2 -4 4 4 6 13 9 21 6 8 -4 12 -11 8 -17z
m-190 -163 c4 -1 11 -2 17 -3 5 0 7 -8 4 -16 -4 -8 -1 -15 7 -15 7 0 9 -3 6
-6 -13 -13 -66 17 -64 36 1 10 6 16 12 12 5 -4 13 -7 18 -8z m-186 -111 c-3
-10 -5 -4 -5 12 0 17 2 24 5 18 2 -7 2 -21 0 -30z m963 -328 c17 10 10 -19 -9
-42 -10 -12 -30 -25 -45 -29 -14 -3 -29 -10 -32 -15 -3 -5 -10 -7 -15 -4 -5 4
-9 1 -9 -5 0 -6 -4 -9 -9 -5 -5 3 -21 -6 -35 -20 -14 -14 -21 -25 -15 -25 6 0
8 -4 4 -10 -3 -5 -12 -7 -19 -4 -9 3 -17 -3 -21 -16 -10 -30 -41 -22 -37 10 2
20 1 22 -7 10 -6 -8 -11 -10 -11 -4 0 6 6 17 14 23 12 10 14 7 12 -19 -1 -16
1 -30 5 -30 10 0 19 57 13 75 -5 11 -2 13 10 9 10 -4 16 -1 16 7 0 12 2 12 9
1 6 -10 10 -7 15 13 5 20 10 25 18 17 13 -13 38 -4 38 13 0 8 8 16 18 19 10 3
23 20 29 37 l12 30 21 -21 c11 -11 25 -18 30 -15z m366 -3 c4 4 15 -7 24 -25
17 -31 45 -44 45 -20 0 6 3 15 8 19 4 4 7 -2 7 -14 0 -11 4 -23 8 -26 5 -3 6
8 4 25 -3 17 0 29 7 29 6 0 11 -9 11 -20 0 -13 5 -18 15 -14 8 3 24 -1 37 -10
18 -13 19 -16 5 -16 -9 0 -17 -5 -17 -11 0 -5 5 -7 10 -4 6 3 10 2 10 -4 0 -5
3 -17 7 -27 4 -10 2 -15 -3 -11 -6 3 -10 -9 -10 -28 0 -21 3 -30 8 -22 6 9 8
9 8 0 0 -7 -8 -16 -17 -22 -10 -5 -18 -15 -19 -23 0 -7 -2 -20 -2 -29 -3 -21
-32 -20 -32 2 0 9 -7 20 -16 23 -8 3 -12 10 -9 16 6 9 -18 41 -30 40 -20 -1
-25 1 -25 11 0 5 5 7 10 4 17 -10 11 4 -10 25 -25 25 -39 27 -17 3 13 -16 13
-20 1 -31 -8 -7 -14 -9 -15 -5 0 4 -2 19 -3 31 -2 13 -7 27 -13 30 -5 4 -12
15 -16 24 -4 10 -12 15 -21 12 -14 -5 -43 32 -33 43 3 2 8 -5 12 -16 3 -12 10
-21 15 -21 5 0 7 7 4 15 -4 10 -1 14 7 12 8 -2 10 -2 5 1 -4 2 -2 9 5 14 10 6
7 7 -8 3 -27 -7 -30 7 -7 30 15 14 17 14 29 -2 7 -10 17 -15 21 -11z m-86 -63
c0 -6 -4 -7 -10 -4 -5 3 -10 11 -10 16 0 6 5 7 10 4 6 -3 10 -11 10 -16z
m-980 -13 c0 -2 -9 -6 -20 -9 -11 -3 -18 -1 -14 4 5 9 34 13 34 5z m449 -38
c-7 -13 -14 -18 -16 -11 -3 7 1 22 8 35 7 13 14 18 16 11 3 -7 -1 -22 -8 -35z
m577 23 c-3 -5 1 -14 9 -21 8 -7 15 -17 15 -22 0 -6 -9 0 -19 13 -17 21 -19
39 -5 39 3 0 3 -4 0 -9z m254 -44 c0 -5 -4 -5 -10 -2 -5 3 -10 14 -10 23 0 15
2 15 10 2 5 -8 10 -19 10 -23z m35 23 c3 -5 1 -10 -4 -10 -6 0 -11 5 -11 10 0
6 2 10 4 10 3 0 8 -4 11 -10z m-304 -33 c-10 -9 -11 -8 -5 6 3 10 9 15 12 12
3 -3 0 -11 -7 -18z m-988 -50 c15 15 37 11 37 -7 0 -10 6 -20 14 -23 7 -3 15
-17 18 -30 4 -18 1 -24 -9 -20 -9 4 -11 0 -7 -11 3 -9 11 -13 17 -9 6 4 8 0 4
-10 -3 -9 -2 -17 3 -19 14 -5 16 -41 2 -45 -7 -3 -12 -1 -11 4 4 21 -2 43 -18
62 l-18 22 -1 -30 c-1 -17 3 -28 7 -25 5 3 6 -2 3 -10 -3 -9 -2 -16 4 -16 10
0 23 -50 28 -110 2 -19 6 -46 9 -60 12 -46 10 -55 -12 -64 -21 -10 -20 -12 33
-73 31 -35 52 -63 47 -63 -5 0 -19 14 -31 30 -24 32 -29 34 -51 21 -12 -8 -12
-12 -2 -25 15 -18 8 -20 -20 -6 -23 13 -26 -2 -4 -20 20 -16 19 -30 -1 -30
-20 0 -13 -20 11 -34 37 -21 60 -66 34 -66 -5 0 -7 5 -4 10 3 6 2 10 -4 10
-17 0 -19 -24 -3 -42 12 -14 12 -18 2 -18 -11 0 -11 -3 -2 -12 9 -9 8 -16 -5
-30 -14 -16 -15 -21 -3 -28 11 -7 10 -11 -4 -25 -16 -17 -18 -16 -39 2 -12 11
-37 30 -56 43 -29 20 -32 21 -23 4 5 -10 12 -36 16 -56 5 -25 12 -38 23 -38
12 0 13 -3 3 -15 -15 -18 -3 -42 13 -26 15 15 27 14 27 -4 0 -9 9 -15 23 -15
14 0 32 -15 52 -43 16 -23 22 -36 12 -28 -14 11 -17 11 -19 0 0 -8 -2 -18 -3
-24 -2 -5 -3 -16 -4 -24 -1 -8 -7 -11 -17 -7 -10 4 -14 1 -12 -6 3 -7 14 -14
26 -16 31 -5 28 -22 -3 -20 -14 1 -25 5 -25 9 0 3 -7 6 -15 6 -11 0 -12 -4 -4
-14 6 -7 18 -13 26 -13 8 0 11 -4 8 -10 -10 -16 -20 -12 -63 30 -41 38 -58 44
-25 8 9 -10 14 -20 11 -23 -12 -12 -178 177 -228 260 -72 117 -72 119 -48 136
11 8 26 20 34 26 10 11 16 10 30 -5 17 -16 18 -16 11 1 -4 11 -1 20 8 23 8 4
13 9 10 14 -2 4 11 22 29 41 18 19 51 61 71 94 l38 59 1 186 c1 102 -3 210 -7
240 l-8 55 29 -28 c15 -15 32 -24 35 -20z m1257 -35 c0 -14 -2 -14 -9 -3 -5 8
-14 10 -22 5 -12 -7 -12 -5 0 9 15 19 31 14 31 -11z m-830 3 c-7 -8 -16 -12
-21 -9 -13 8 -1 24 18 24 13 0 13 -3 3 -15z m762 -79 c3 -17 1 -23 -8 -19 -15
6 -26 31 -18 44 8 14 21 2 26 -25z m-302 -26 c0 -5 -4 -10 -10 -10 -5 0 -10 5
-10 10 0 6 5 10 10 10 6 0 10 -4 10 -10z m278 -15 c-3 -3 -9 2 -12 12 -6 14
-5 15 5 6 7 -7 10 -15 7 -18z m-168 -322 c0 -5 -5 0 -11 10 -6 9 -14 15 -19
12 -5 -3 -14 4 -20 16 -8 15 -9 19 -1 15 6 -4 11 -3 11 3 0 5 -4 13 -10 16 -5
3 -10 12 -10 18 0 7 14 -9 30 -35 17 -27 30 -51 30 -55z m75 77 c3 -5 1 -10
-4 -10 -6 0 -11 5 -11 10 0 6 2 10 4 10 3 0 8 -4 11 -10z m-51 -52 l19 -33
-25 23 c-15 13 -28 33 -31 43 -7 28 13 10 37 -33z m-908 30 c4 -7 4 -10 -1 -6
-4 4 -14 3 -22 -3 -8 -8 -13 -8 -13 -1 0 6 6 13 13 15 6 3 13 6 14 6 1 1 5 -5
9 -11z m-6 -188 c0 -5 -2 -10 -4 -10 -3 0 -8 5 -11 10 -3 6 -1 10 4 10 6 0 11
-4 11 -10z m996 -140 c-1 -17 -12 -40 -24 -52 l-22 -22 5 22 c8 41 28 91 36
86 4 -2 6 -18 5 -34z m-1726 -56 c-6 -6 -6 -14 -2 -19 4 -4 -3 -5 -16 -2 -12
3 -20 2 -17 -3 3 -4 -2 -13 -9 -19 -28 -24 -24 7 6 43 22 28 33 34 39 25 4 -7
4 -18 -1 -25z m790 12 c0 -2 -9 -6 -20 -9 -11 -3 -18 -1 -14 4 5 9 34 13 34 5z
m970 -46 c20 -39 25 -85 13 -128 -9 -35 -23 -7 -23 48 0 29 -7 54 -20 70 -11
14 -20 22 -20 19 0 -3 -7 -54 -15 -114 -15 -103 -44 -181 -75 -200 -6 -3 -1 9
10 28 18 31 19 35 4 33 -9 0 -19 5 -22 13 -3 10 2 11 19 6 16 -4 19 -3 11 3
-10 7 -10 11 2 21 8 6 13 23 11 36 -1 14 3 25 9 25 6 0 5 4 -3 9 -8 5 -9 11
-3 15 6 3 8 23 6 44 -4 33 -1 40 18 50 18 8 19 11 6 11 -10 1 -18 6 -18 12 0
5 4 8 9 5 4 -3 16 3 26 14 25 28 32 25 55 -20z m-1106 -6 c3 -8 2 -12 -4 -9
-6 3 -10 10 -10 16 0 14 7 11 14 -7z m-453 -181 c13 -16 12 -17 -3 -4 -10 7
-18 15 -18 17 0 8 8 3 21 -13z m523 -105 c-6 -9 -34 1 -34 12 0 5 6 10 13 13
13 4 28 -13 21 -25z m532 -230 c4 -6 -2 -7 -17 -3 -35 10 -45 23 -15 18 15 -3
29 -10 32 -15z m342 -530 c28 -14 31 -23 76 -193 57 -216 62 -291 23 -357 -25
-42 -137 -158 -154 -158 -5 0 -44 21 -88 47 -109 63 -186 142 -209 213 -21 66
-56 294 -56 368 0 52 1 53 37 69 79 32 311 39 371 11z m525 -59 c34 -11 43
-10 72 5 22 12 40 16 52 11 10 -5 41 -11 68 -14 50 -6 50 -6 47 -40 -4 -56 17
-135 50 -187 27 -43 32 -60 35 -132 5 -110 -17 -162 -80 -187 -23 -9 -49 -23
-58 -31 -14 -13 -18 -13 -28 0 -7 8 -34 19 -61 26 -90 22 -167 101 -185 190
-4 19 -13 45 -21 57 -9 14 -11 37 -7 71 8 68 -2 112 -37 163 -16 24 -30 47
-30 52 0 4 19 7 43 7 24 0 52 7 63 15 10 8 24 13 29 10 6 -2 27 -9 48 -16z
m-1523 -100 c0 -5 -5 -9 -11 -9 -5 0 -7 5 -4 10 3 6 -1 10 -10 10 -9 0 -13 5
-10 10 7 12 35 -5 35 -21z m40 27 c0 -11 -19 -15 -25 -6 -3 5 1 10 9 10 9 0
16 -2 16 -4z m-93 -28 c-3 -8 -6 -5 -6 6 -1 11 2 17 5 13 3 -3 4 -12 1 -19z
m116 7 c-3 -9 -8 -14 -10 -11 -3 3 -2 9 2 15 9 16 15 13 8 -4z m206 -48 c-2
-2 -35 -21 -74 -42 -38 -21 -86 -46 -105 -57 l-35 -20 28 22 c38 30 34 42 -9
24 -20 -8 -38 -13 -41 -11 -2 3 15 12 39 21 24 9 77 29 118 44 64 24 96 32 79
19z m-406 -17 c-3 -12 -8 -19 -11 -16 -5 6 5 36 12 36 2 0 2 -9 -1 -20z m100
7 c3 12 5 8 6 -10 1 -28 1 -28 -24 -10 -13 10 -25 22 -25 27 0 5 9 1 19 -8 18
-17 19 -17 24 1z m34 -24 c-3 -10 -5 -4 -5 12 0 17 2 24 5 18 2 -7 2 -21 0
-30z m78 7 c-6 -20 -8 -20 -19 -4 -12 16 -14 16 -24 -2 -6 -10 -12 -14 -12 -8
0 21 25 35 38 22 9 -9 12 -8 12 7 0 10 3 16 6 12 3 -3 3 -15 -1 -27z m28 10
c-3 -11 -7 -20 -9 -20 -2 0 -4 9 -4 20 0 11 4 20 9 20 5 0 7 -9 4 -20z m42 11
c3 -5 2 -12 -3 -15 -5 -3 -9 1 -9 9 0 17 3 19 12 6z m-426 -58 c-4 -41 2 -63
23 -83 28 -25 64 -25 129 0 28 12 54 18 57 15 3 -3 0 -5 -6 -5 -16 0 -52 -41
-45 -52 3 -6 17 -8 31 -5 26 5 26 5 7 -10 -27 -20 -116 -65 -120 -61 -2 2 16
14 41 27 24 13 42 26 39 29 -2 3 -11 0 -19 -7 -27 -23 -74 -31 -87 -15 -7 8
-17 13 -23 11 -6 -2 -19 10 -29 26 -19 30 -31 28 -40 -8 -3 -11 -5 -3 -6 18 0
21 9 61 20 88 22 51 32 61 28 32z m-889 -8 c28 -14 50 -58 36 -72 -3 -3 -17
-1 -31 5 -32 15 -92 16 -100 2 -9 -15 -35 -12 -35 3 0 20 60 77 82 77 10 0 32
-7 48 -15z m340 -65 c11 -11 20 -29 20 -41 0 -17 -4 -19 -22 -13 -37 12 -79
13 -103 2 -24 -11 -65 -75 -65 -102 0 -9 -9 -26 -19 -38 -12 -12 -23 -43 -27
-76 -5 -41 -13 -62 -32 -79 -14 -13 -29 -23 -33 -23 -15 0 -10 27 5 33 17 7
57 109 61 156 2 23 11 40 28 53 14 10 31 34 37 53 14 42 72 95 105 95 14 0 34
-9 45 -20z m534 -56 c3 -8 2 -12 -4 -9 -6 3 -10 10 -10 16 0 14 7 11 14 -7z
m-1010 -66 c-13 -59 -28 -98 -41 -98 -26 0 -12 61 25 103 20 22 21 22 16 -5z
m431 -350 c2 -13 6 -31 10 -40 4 -10 3 -18 -3 -18 -11 0 -22 33 -22 69 0 29
12 21 15 -11z"/>
<path d="M3430 5013 c1 -11 31 -46 55 -63 10 -8 4 4 -15 28 -34 42 -40 48 -40
35z"/>
<path d="M3600 4988 c0 -15 50 -92 56 -86 5 6 -34 85 -46 93 -5 3 -10 0 -10
-7z"/>
<path d="M3280 4986 c0 -3 9 -10 20 -16 11 -6 20 -8 20 -6 0 3 -9 10 -20 16
-11 6 -20 8 -20 6z"/>
<path d="M3615 4915 c7 -33 21 -52 31 -42 4 3 -3 21 -16 39 l-22 33 7 -30z"/>
<path d="M3295 4920 c3 -5 8 -10 11 -10 2 0 4 5 4 10 0 6 -5 10 -11 10 -5 0
-7 -4 -4 -10z"/>
<path d="M3460 4900 c6 -11 13 -20 16 -20 2 0 0 9 -6 20 -6 11 -13 20 -16 20
-2 0 0 -9 6 -20z"/>
<path d="M3058 4903 c7 -3 16 -2 19 1 4 3 -2 6 -13 5 -11 0 -14 -3 -6 -6z"/>
<path d="M2821 4886 c2 -2 18 -6 34 -10 22 -5 26 -4 15 4 -14 9 -59 15 -49 6z"/>
<path d="M3801 4854 c0 -11 3 -14 6 -6 3 7 2 16 -1 19 -3 4 -6 -2 -5 -13z"/>
<path d="M3710 4841 c0 -11 5 -23 10 -26 6 -3 10 3 10 14 0 11 -4 23 -10 26
-5 3 -10 -3 -10 -14z"/>
<path d="M3520 4831 c0 -6 4 -13 10 -16 6 -3 7 1 4 9 -7 18 -14 21 -14 7z"/>
<path d="M2619 4799 c-10 -6 -8 -9 7 -9 12 0 37 -3 55 -6 19 -4 31 -4 27 0
-12 13 -76 24 -89 15z"/>
<path d="M2720 4783 c0 -5 12 -9 27 -10 19 -1 22 1 12 8 -17 11 -39 12 -39 2z"/>
<path d="M2804 4759 c-4 -7 -3 -9 4 -5 5 3 13 0 15 -6 4 -9 6 -10 6 -1 1 17
-16 25 -25 12z"/>
<path d="M3790 4760 c0 -5 4 -10 9 -10 6 0 13 5 16 10 3 6 -1 10 -9 10 -9 0
-16 -4 -16 -10z"/>
<path d="M3826 4718 c-3 -17 -2 -36 4 -42 7 -7 10 4 10 32 0 50 -5 54 -14 10z"/>
<path d="M2700 4705 l25 -16 -27 6 c-16 3 -28 1 -28 -3 0 -8 24 -9 70 -3 13 1
13 3 0 10 -8 5 -26 12 -40 15 l-25 7 25 -16z"/>
<path d="M2638 4693 c7 -3 16 -2 19 1 4 3 -2 6 -13 5 -11 0 -14 -3 -6 -6z"/>
<path d="M2365 4676 c-11 -8 -14 -15 -8 -19 6 -4 16 0 23 8 17 21 8 28 -15 11z"/>
<path d="M2651 4207 c-13 -21 -12 -21 5 -5 10 10 16 20 13 22 -3 3 -11 -5 -18
-17z"/>
<path d="M3362 4000 c-15 -24 -35 -26 -52 -5 -15 17 -50 20 -50 4 0 -8 -4 -8
-13 -1 -11 9 -55 10 -77 2 -3 -2 -8 -2 -12 -1 -5 0 -8 -3 -8 -9 0 -8 -13 -12
-92 -24 -15 -3 -30 0 -33 5 -4 5 -15 9 -26 9 -11 0 -18 4 -15 9 4 5 -7 6 -26
0 -18 -5 -62 -16 -98 -24 -35 -9 -68 -22 -73 -30 -4 -8 -12 -15 -18 -15 -17 0
-51 -38 -44 -49 3 -6 -1 -11 -10 -11 -9 0 -14 -4 -10 -9 3 -5 -2 -16 -10 -24
-18 -19 -20 -31 -2 -21 9 6 9 4 1 -7 -6 -8 -14 -27 -18 -42 -6 -24 -3 -30 14
-34 17 -4 18 -8 8 -14 -9 -6 -7 -9 9 -9 12 0 25 -4 28 -10 3 -5 11 -10 16 -10
6 0 7 5 4 10 -3 6 5 10 19 10 14 0 28 5 31 10 3 6 13 10 22 10 9 0 13 -3 10
-6 -9 -10 12 -46 24 -39 5 4 9 0 9 -8 0 -26 29 -28 190 -13 18 2 36 8 38 15 2
6 15 11 29 11 16 0 27 7 30 20 3 11 14 20 24 20 11 0 19 4 19 9 0 6 16 36 35
69 31 54 37 59 67 58 32 -1 33 -3 54 -76 13 -41 25 -87 28 -101 3 -15 17 -34
30 -43 29 -18 176 -31 176 -15 0 6 4 8 9 5 10 -7 25 22 22 44 -1 12 0 12 7 2
10 -14 62 -9 100 10 19 10 22 19 22 78 0 43 -5 73 -15 86 -8 10 -15 27 -15 36
0 15 -34 35 -52 30 -5 -1 -8 3 -8 10 0 6 -3 9 -6 5 -4 -3 -23 1 -44 9 -20 8
-48 16 -61 18 -13 1 -35 9 -49 16 -14 8 -31 15 -37 16 -7 1 -20 9 -29 18 -21
22 -57 20 -72 -4z m-605 -116 c-3 -3 -12 -4 -19 -1 -8 3 -5 6 6 6 11 1 17 -2
13 -5z m383 -184 c0 -4 -12 -7 -26 -7 -14 0 -21 3 -15 7 7 3 18 7 26 7 8 0 15
-4 15 -7z"/>
<path d="M3207 3703 c-4 -3 -7 -15 -7 -26 0 -25 13 -14 17 13 3 21 1 24 -10
13z"/>
<path d="M2365 3590 c-11 -4 -24 -5 -28 -3 -4 3 -5 -7 -1 -21 7 -30 -5 -49
-47 -70 -20 -10 -29 -11 -32 -2 -5 13 -46 -33 -47 -52 0 -7 -4 -10 -10 -7 -33
20 11 -77 45 -99 31 -21 49 -11 20 11 -13 9 -15 14 -5 12 8 -2 26 3 40 11 25
14 30 16 61 18 20 2 33 67 18 93 -7 14 -6 17 4 13 7 -2 21 4 31 15 16 18 16
22 2 49 -19 38 -26 42 -51 32z"/>
<path d="M3158 3511 c-33 -19 -35 -26 -10 -28 10 -1 24 8 31 19 16 26 12 28
-21 9z"/>
<path d="M2170 3375 c-2 -52 46 -125 81 -125 32 0 29 17 -7 41 -19 13 -44 40
-54 59 -11 19 -19 31 -20 25z"/>
<path d="M2387 3334 c3 -7 9 -14 14 -14 14 0 10 17 -5 23 -10 4 -13 1 -9 -9z"/>
<path d="M3065 3240 c-3 -6 1 -7 9 -4 18 7 21 14 7 14 -6 0 -13 -4 -16 -10z"/>
<path d="M2507 2634 c3 -7 9 -14 14 -14 14 0 10 17 -5 23 -10 4 -13 1 -9 -9z"/>
<path d="M3119 1200 c-84 -14 -91 -22 -84 -93 14 -144 28 -236 46 -307 21 -77
62 -145 81 -134 6 4 8 2 4 -4 -4 -6 20 -29 56 -55 83 -58 85 -59 94 -46 5 8 3
9 -6 4 -8 -5 -11 -3 -8 6 3 8 22 15 49 17 44 3 69 16 69 35 0 6 -6 2 -14 -9
-8 -10 -18 -16 -22 -12 -4 4 -1 14 6 23 11 13 10 14 -4 9 -9 -3 -16 -14 -17
-23 0 -13 -2 -12 -8 3 -7 18 -8 18 -14 3 -4 -10 -17 -17 -33 -17 -19 0 -25 4
-20 15 3 8 1 15 -4 15 -6 0 -10 3 -10 8 0 4 45 8 100 9 94 2 99 1 90 -17 -5
-10 -30 -36 -56 -59 -39 -34 -49 -39 -66 -30 -11 6 -22 9 -24 6 -2 -2 7 -9 20
-17 22 -11 28 -9 62 16 52 40 111 118 125 163 13 44 0 132 -45 311 -44 170
-43 168 -84 180 -42 11 -214 11 -283 0z m124 -23 c26 5 81 -42 73 -63 -3 -8
-1 -14 4 -14 13 0 13 37 0 45 -6 4 -8 11 -4 16 3 5 2 9 -3 8 -17 -3 -33 1 -33
9 0 9 117 -1 142 -12 16 -7 28 -37 27 -66 0 -8 -9 3 -20 25 l-19 40 6 -35 c3
-19 14 -42 24 -50 15 -12 34 -67 55 -160 2 -8 8 -35 14 -60 15 -64 13 -136 -4
-170 -15 -28 -16 -29 -105 -29 -73 0 -90 2 -90 14 0 8 5 15 11 15 5 0 7 -5 3
-12 -5 -7 -3 -8 6 -3 13 8 33 11 100 15 l35 2 -34 8 c-19 5 -40 6 -48 3 -11
-4 -13 5 -11 41 2 31 7 45 15 42 7 -3 10 1 7 9 -4 10 -12 11 -27 6 -28 -10
-105 -7 -117 5 -5 5 -5 28 1 54 17 73 -11 191 -57 241 -14 16 -14 20 1 43 10
14 15 26 12 26 -2 0 -12 -11 -20 -24 -15 -22 -14 -28 18 -92 40 -81 48 -125
36 -191 -6 -29 -6 -54 0 -65 7 -14 6 -18 -6 -18 -9 0 -19 -10 -24 -22 -5 -14
-10 -18 -15 -10 -4 7 -11 10 -16 7 -4 -3 -4 11 0 29 6 26 4 33 -5 30 -7 -3
-16 0 -21 7 -4 8 -3 10 4 5 7 -4 12 -2 12 4 0 6 5 8 10 5 6 -3 10 -1 10 4 0 6
-5 11 -11 11 -6 0 -8 9 -4 23 5 18 4 19 -5 7 -9 -12 -10 -6 -6 25 3 22 2 35
-2 29 -4 -6 -16 -8 -27 -4 -17 6 -16 8 10 14 25 6 27 9 13 17 -12 6 -16 19
-13 44 2 19 -2 38 -8 42 -5 3 -7 1 -3 -5 3 -6 1 -14 -5 -18 -7 -4 -9 -3 -5 4
3 6 2 13 -4 17 -5 3 -10 16 -9 28 1 20 2 20 9 -3 4 -14 8 -19 9 -12 1 7 6 10
12 6 8 -5 8 -1 0 13 -6 11 -7 24 -3 28 4 5 1 5 -5 1 -7 -4 -13 -2 -13 4 0 6
-4 8 -10 5 -5 -3 -10 1 -10 10 0 10 5 14 13 10 6 -4 3 1 -7 9 -11 9 -16 19
-12 23 9 10 120 20 124 12 1 -3 13 -4 25 -2z m-136 -179 c-3 -8 -6 -5 -6 6 -1
11 2 17 5 13 3 -3 4 -12 1 -19z m52 -138 c11 -24 11 -24 -3 -6 -16 19 -16 19
-16 -4 0 -13 -3 -21 -6 -17 -4 3 -3 18 0 33 8 29 8 29 25 -6z m8 -82 c-3 -8
-6 -5 -6 6 -1 11 2 17 5 13 3 -3 4 -12 1 -19z m-60 -10 c-3 -8 -6 -5 -6 6 -1
11 2 17 5 13 3 -3 4 -12 1 -19z m201 6 c-3 -3 -2 -21 2 -40 6 -26 5 -34 -6
-34 -8 0 -14 10 -14 23 0 29 -7 37 -27 30 -11 -4 -11 -8 -3 -13 9 -6 9 -13 0
-30 -14 -26 -25 -17 -33 27 -6 31 -5 32 31 36 20 2 41 4 46 5 5 1 7 0 4 -4z
m62 -4 c0 -5 -8 -10 -17 -10 -12 0 -14 -3 -6 -11 11 -11 6 -49 -7 -49 -11 0
-20 26 -20 56 0 19 5 24 25 24 14 0 25 -4 25 -10z m-200 -40 c0 13 1 13 10 0
5 -8 10 -10 10 -4 0 6 7 11 15 11 9 0 15 -10 15 -24 0 -12 -4 -23 -10 -23 -5
0 -6 7 -3 17 4 11 3 14 -5 9 -27 -16 -11 -34 33 -38 25 -2 45 0 45 4 0 5 -5 8
-11 8 -5 0 -7 5 -4 11 5 6 13 2 22 -11 8 -12 13 -23 12 -25 -2 -2 -27 -6 -56
-9 -54 -5 -63 1 -63 45 0 10 -5 18 -11 17 -6 -2 -14 4 -16 12 -4 13 -3 13 6 0
10 -13 11 -13 11 0z m104 -105 c3 -9 0 -15 -9 -15 -8 0 -15 7 -15 15 0 8 4 15
9 15 5 0 11 -7 15 -15z m7 -42 c13 -16 12 -17 -3 -4 -17 13 -22 21 -14 21 2 0
10 -8 17 -17z"/>
<path d="M3230 1152 c0 -4 9 -8 20 -9 11 -1 18 2 15 8 -7 11 -35 12 -35 1z"/>
<path d="M3210 1131 c0 -5 5 -13 10 -16 6 -3 10 -2 10 4 0 5 -4 13 -10 16 -5
3 -10 2 -10 -4z"/>
<path d="M3281 1094 c0 -11 3 -14 6 -6 3 7 2 16 -1 19 -3 4 -6 -2 -5 -13z"/>
<path d="M3262 1075 c0 -16 2 -22 5 -12 2 9 2 23 0 30 -3 6 -5 -1 -5 -18z"/>
<path d="M3281 1034 c0 -11 3 -14 6 -6 3 7 2 16 -1 19 -3 4 -6 -2 -5 -13z"/>
<path d="M3310 992 c0 -24 37 -109 51 -118 6 -3 1 13 -11 35 -11 23 -18 47
-14 53 5 7 3 8 -6 3 -10 -6 -12 -3 -8 13 4 12 2 25 -3 28 -5 3 -9 -4 -9 -14z"/>
<path d="M3291 974 c0 -11 3 -14 6 -6 3 7 2 16 -1 19 -3 4 -6 -2 -5 -13z"/>
<path d="M3297 930 c-10 -37 -8 -70 3 -70 5 0 7 15 5 33 l-5 32 14 -35 c18
-43 19 -18 2 30 -12 33 -13 34 -19 10z"/>
<path d="M3267 836 c-4 -10 -5 -21 -2 -24 9 -9 17 6 13 25 -3 17 -4 17 -11 -1z"/>
<path d="M3430 730 c6 -11 13 -20 16 -20 2 0 0 9 -6 20 -6 11 -13 20 -16 20
-2 0 0 -9 6 -20z"/>
<path d="M3893 1134 c-9 -4 -9 -13 -2 -30 14 -39 11 -44 -22 -44 -28 0 -31 -3
-25 -22 3 -13 6 -28 6 -33 0 -7 14 -9 34 -7 30 3 35 1 44 -26 13 -37 8 -42
-36 -42 -20 0 -33 -3 -29 -6 3 -3 33 -3 66 1 59 7 60 7 50 32 -14 37 -11 43
20 43 27 0 29 2 22 28 -6 21 -14 28 -38 30 -25 3 -33 10 -46 43 -15 38 -20 42
-44 33z"/>
<path d="M4101 1110 c0 -8 4 -24 9 -35 5 -13 9 -14 9 -5 0 8 -4 24 -9 35 -5
13 -9 14 -9 5z"/>
<path d="M4031 1090 c0 -8 4 -24 9 -35 5 -13 9 -14 9 -5 0 8 -4 24 -9 35 -5
13 -9 14 -9 5z"/>
<path d="M4081 1044 c0 -11 3 -14 6 -6 3 7 2 16 -1 19 -3 4 -6 -2 -5 -13z"/>
<path d="M4121 1034 c0 -11 3 -14 6 -6 3 7 2 16 -1 19 -3 4 -6 -2 -5 -13z"/>
<path d="M4051 1014 c0 -11 3 -14 6 -6 3 7 2 16 -1 19 -3 4 -6 -2 -5 -13z"/>
<path d="M4161 1014 c0 -11 3 -14 6 -6 3 7 2 16 -1 19 -3 4 -6 -2 -5 -13z"/>
<path d="M4091 1004 c0 -11 3 -14 6 -6 3 7 2 16 -1 19 -3 4 -6 -2 -5 -13z"/>
<path d="M4136 977 c5 -38 5 -38 -28 -35 -24 2 -34 9 -40 28 -8 25 -8 25 -4
-2 2 -18 -2 -28 -13 -31 -9 -3 20 -5 64 -4 44 0 70 2 58 4 -14 3 -25 16 -32
41 l-10 37 5 -38z"/>
<path d="M4172 970 c0 -14 2 -19 5 -12 2 6 2 18 0 25 -3 6 -5 1 -5 -13z"/>
<path d="M4101 964 c0 -11 3 -14 6 -6 3 7 2 16 -1 19 -3 4 -6 -2 -5 -13z"/>
<path d="M3970 898 c0 -13 4 -29 9 -36 6 -11 9 -9 14 7 2 11 0 22 -7 25 -7 3
-7 5 2 5 17 1 15 21 -3 21 -9 0 -15 -9 -15 -22z"/>
<path d="M4037 913 c-12 -11 -7 -40 8 -53 9 -7 19 -10 23 -6 4 4 -1 12 -11 17
-21 12 -22 29 -1 29 8 0 12 5 9 10 -7 12 -19 13 -28 3z"/>
<path d="M4094 898 c3 -13 6 -29 6 -35 0 -15 26 -17 34 -4 10 16 -13 61 -30
61 -12 0 -15 -6 -10 -22z"/>
<path d="M3875 808 c13 -57 46 -118 82 -147 87 -72 249 -66 288 10 15 28 20
124 9 153 -5 14 -32 16 -196 16 l-190 0 7 -32z m245 -28 c20 -20 24 -36 20
-75 -3 -30 -15 -38 -45 -31 -36 9 -63 66 -47 101 14 30 44 33 72 5z"/>
<path d="M4080 769 c0 -5 5 -7 10 -4 6 3 10 8 10 11 0 2 -4 4 -10 4 -5 0 -10
-5 -10 -11z"/>
<path d="M2116 874 c-9 -24 -2 -26 12 -4 7 11 8 20 3 20 -5 0 -12 -7 -15 -16z"/>
<path d="M2575 20 c3 -5 27 -10 53 -9 35 0 42 3 27 9 -28 12 -88 12 -80 0z"/>
</g>
</svg>
